<?xml version="1.0" encoding="UTF-8" standalone="no"?>
<!-- Created with Inkscape (http://www.inkscape.org/) -->

<svg
   width="210mm"
   height="297mm"
   viewBox="0 0 210 297"
   version="1.1"
   id="svg1"
   xml:space="preserve"
   xmlns="http://www.w3.org/2000/svg"
   xmlns:svg="http://www.w3.org/2000/svg"><defs
     id="defs1" /><g
     id="layer2"><path
       style="fill:none;fill-opacity:1;fill-rule:evenodd;stroke:#000000;stroke-width:0.251743;stroke-linecap:butt;stroke-linejoin:miter;stroke-miterlimit:4;stroke-opacity:1"
       d="m 10.145138,93.010528 31.27651,4.91686 4.34651,-23.3938 4.2403,1.08958 -0.57691,2.31945 1.57471,0.41957 1.63109,0.42744 0.62018,-2.32732 5.51082,1.41475 -11.24586,40.221272 10.19168,2.78492 8.48717,-31.169002 1.56946,0.39992 -1.11055,3.9584 12.28823,3.50998 1.17087,-4.28357 1.9969,0.49299 -8.80315,31.821962 10.15497,2.49514 9.0195,-33.068862 12.052232,3.25037 1.80416,0.48382 -2.39943,13.438112 -0.38418,2.15162 -2.22503,8.596 -2.505652,9.67509 10.186442,2.82161 9.26206,-33.26424 2.52269,0.71721 v 0.92175 l 0.0931,0.87586 0.41564,1.18267 0.7631,1.2102 0.76179,0.7631 0.8929,0.59659 1.06072,0.41957 1.29543,0.2701 1.20235,0.0275 1.29543,-0.27928 1.4331,-0.83784 0.99124,-1.06204 0.62673,-1.1276 1.24561,0.34485 1.22201,0.33565 -9.39319,33.92506 6.39849,1.77007 3.77484,1.05156 9.22535,-33.24457 0.15472,-0.56905 2.59217,0.62412 -0.0433,0.76441 0.0499,0.73556 0.25305,1.0332 0.38548,0.97813 0.66869,0.88503 0.7631,0.73556 0.82997,0.52972 0.90601,0.42875 1.29543,0.23338 0.80637,0.0839 1.1158,-0.2242 0.8929,-0.26092 0.78015,-0.3632 0.73163,-0.61362 0.90602,-1.02534 0.65688,-1.2102 0.79982,0.13899 -2.95144,15.95294 0.316,0.0839 -4.97849,17.63778 9.47315,2.75607 11.94078,-41.91531 -8.87134,-2.21586 0.47727,-1.77925 0.53888,-2.00215 2.09,-0.16783 1.87758,-0.21372 2.10836,-0.4943 2.67215,-1.033192 3.09959,-2.0205 2.41124,-2.29061 1.62452,-2.53318 0.28584,-0.82865 0.60052,-1.60224 0.3291,-2.4768 -0.2229,-1.49997 -0.28583,-1.04238 -0.76834,-1.3977 -1.14072,-1.64813 -1.3269,-1.11711 -2.08868,-1.21152 -2.33126,-0.64246 -0.788,-0.12064 -1.26397,-0.19536 -2.62888,-0.0748 -2.7836,0.41957 -2.39943,0.67918 -2.24996,1.06204 -1.41344,0.69886 -1.63109,1.18266 -9.49151,-1.73204 0.92962,-3.30676 -2.48598,-0.70803 -2.42434,-0.67 -1.10924,3.72502 -6.62793,-1.16432 8.39538,-46.92657 -10.34771,-1.86185 -5.94481,33.16196 -18.31435,-3.3251 5.94613,-33.14362 -10.40933,-1.7976 -7.414642,40.71558 -17.82397,-3.26873 7.3281,-40.29602 -10.47097,-1.86316 -7.01211,40.44548 -3.57684,-0.68836 -9.90061,-2.73902 -0.21765,0.81948 -4.19049,-0.79981 7.26516,-40.28683 -10.55749,-1.70452 -7.35825,40.34191 -5.2263,-1.06991 0.52578,-2.97111 -9.52168,-1.67697 -0.55856,3.09173 -3.05632,-0.51134 7.02391,-40.70642 -10.30313,-1.84349 -8.71007,49.50563 20.80556,3.71584 -0.17963,1.01615 -2.09524,-0.38286 -0.29764,1.6678 -0.30419,1.69402 2.08344,0.37369 -0.27272,1.52619 -17.81872,-3.16647 z m 0,0"
       id="path222" /></g></svg>
